<?xml version="1.0" standalone="no"?>
<svg viewBox="0 0 200 200" xmlns="http://www.w3.org/2000/svg">
  <path fill="#f8baba" d="M34.5,-42.6C44.6,-40.1,52.7,-29.9,52.6,-19.6C52.5,-9.3,44.1,1.2,39.7,12.3C35.2,23.4,34.6,35.1,28.7,47.5C22.7,59.8,11.4,72.8,-2.4,76.1C-16.2,79.4,-32.4,73.1,-37.7,60.6C-43.1,48,-37.7,29.2,-43.6,13.6C-49.5,-2.1,-66.8,-14.7,-65.4,-21.9C-63.9,-29,-43.7,-30.7,-29.7,-32C-15.7,-33.2,-7.8,-34.1,2.2,-37.1C12.2,-40.1,24.3,-45.2,34.5,-42.6Z" transform="translate(100 100)" />
</svg>
